<?xml version="1.0" standalone="no"?><!DOCTYPE svg PUBLIC "-//W3C//DTD SVG 1.1//EN" "http://www.w3.org/Graphics/SVG/1.1/DTD/svg11.dtd"><svg t="1535594474508" class="icon" style="" viewBox="0 0 1024 1024" version="1.1" xmlns="http://www.w3.org/2000/svg" p-id="3075" data-spm-anchor-id="a313x.7781069.0.i4" xmlns:xlink="http://www.w3.org/1999/xlink" width="200" height="200"><defs><style type="text/css"></style></defs><path d="M266.117 801.109l10.94-221.035 441.968 21.874-10.94 221.035zM907.4 333.9l-10-96-25.2 2.6L856.4 66l-722.9 64.4 15.9 175.8-32.9 3.4 10 96 31.5-3.2 15.7 174.4 722.9-64.4-15.8-175.6 26.6-2.9z m-580.3 76.7c-40.1 3.6-75.6-25.8-79.2-65.6-3.6-39.8 26-75 66.2-78.5 40.1-3.6 75.6 25.8 79.2 65.6 3.5 39.8-26.1 75-66.2 78.5zM716 377.2c-40.1 3.6-75.6-25.8-79.2-65.6-3.6-39.8 26-75 66.2-78.5 40.1-3.6 75.6 25.8 79.2 65.6 3.6 39.8-26.1 75-66.2 78.5zM320.7 829l1.8 129 123.9-10.9-1.6-112zM545 840.1l24.1 96.2 125-11-19.7-78.8z" fill="" p-id="3076"></path></svg>